<svg width="85" height="66" viewBox="0 0 85 66" fill="none" xmlns="http://www.w3.org/2000/svg">
<path d="M41.7406 12.7388C42.3264 12.153 42.3264 11.2033 41.7406 10.6175L32.1946 1.07154C31.6088 0.48575 30.6591 0.48575 30.0733 1.07154C29.4875 1.65732 29.4875 2.60707 30.0733 3.19286L38.5586 11.6781L30.0733 20.1634C29.4875 20.7492 29.4875 21.699 30.0733 22.2847C30.6591 22.8705 31.6088 22.8705 32.1946 22.2847L41.7406 12.7388ZM38.6261 13.1781H40.6799V10.1781H38.6261V13.1781Z" fill="white"/>
<path d="M39.1261 54.1781C-8.99992 63 -7.99999 2.5 39.1261 11.6781" stroke="white" stroke-width="5"/>
<path d="M42.5655 53.1175C41.9797 53.7033 41.9797 54.653 42.5655 55.2388L52.1114 64.7847C52.6972 65.3705 53.6469 65.3705 54.2327 64.7847C54.8185 64.1989 54.8185 63.2492 54.2327 62.6634L45.7474 54.1781L54.2327 45.6929C54.8185 45.1071 54.8185 44.1573 54.2327 43.5715C53.6469 42.9857 52.6972 42.9857 52.1114 43.5715L42.5655 53.1175ZM45.6799 52.6781H43.6261V55.6781H45.6799V52.6781Z" fill="white"/>
<path d="M45.1799 11.6781C99.5 3 89.0001 64 45.1799 54.1781" stroke="white" stroke-width="5"/>
</svg>
