<svg width="60" height="51" viewBox="0 0 60 51" fill="none" xmlns="http://www.w3.org/2000/svg">
<path d="M34.2917 47.6649L35.1667 46.4466L34.2917 47.6649C35.9457 48.8528 38.25 47.6707 38.25 45.6343V5.36568C38.25 3.32932 35.9457 2.14721 34.2917 3.33508L6.256 23.4694C4.86708 24.4669 4.86709 26.5331 6.256 27.5306L34.2917 47.6649Z" fill="white" stroke="black" stroke-width="3"/>
<path d="M4 15.5C2.61929 15.5 1.5 16.6193 1.5 18V32C1.5 33.3807 2.61929 34.5 4 34.5H12C13.3807 34.5 14.5 33.3807 14.5 32V18C14.5 16.6193 13.3807 15.5 12 15.5H4Z" fill="white" stroke="black" stroke-width="3"/>
<rect x="45" y="19.4142" width="2" height="17.7159" rx="1" transform="rotate(-45 45 19.4142)" fill="white"/>
<rect x="57.6512" y="18" width="2" height="17.72" rx="1" transform="rotate(45 57.6512 18)" fill="white"/>
</svg>
